<svg width="21" height="20" viewBox="0 0 21 20" fill="none"
  xmlns="http://www.w3.org/2000/svg">
  <path d="M18.8278 10.1944C18.8278 9.47495 18.7682 8.94995 18.6393 8.40552H10.2563V11.6527H15.1769C15.0778 12.4597 14.5421 13.675 13.3516 14.4916L13.3349 14.6003L15.9854 16.6126L16.169 16.6305C17.8555 15.1041 18.8278 12.8583 18.8278 10.1944" fill="#4285F4"/>
  <path d="M10.2558 18.75C12.6665 18.75 14.6903 17.9722 16.1685 16.6305L13.351 14.4916C12.5971 15.0068 11.5852 15.3666 10.2558 15.3666C7.89476 15.3666 5.89081 13.8402 5.17646 11.7305L5.07175 11.7392L2.31571 13.8295L2.27966 13.9277C3.7479 16.786 6.76376 18.75 10.2558 18.75Z" fill="#34A853"/>
  <path d="M5.17692 11.7305C4.98843 11.186 4.87935 10.6027 4.87935 9.99992C4.87935 9.3971 4.98843 8.81379 5.16701 8.26935L5.16201 8.1534L2.37142 6.02954L2.28012 6.0721C1.67498 7.25823 1.32776 8.5902 1.32776 9.99992C1.32776 11.4096 1.67498 12.7415 2.28012 13.9277L5.17692 11.7305" fill="#FBBC05"/>
  <path d="M10.2559 4.63331C11.9325 4.63331 13.0634 5.34303 13.7083 5.93612L16.2281 3.525C14.6805 2.11528 12.6666 1.25 10.2559 1.25C6.76379 1.25 3.7479 3.21387 2.27966 6.07218L5.16656 8.26943C5.89083 6.15972 7.89479 4.63331 10.2559 4.63331" fill="#EB4335"/>
</svg>
