<svg width="99" height="22" viewBox="0 0 99 22" fill="none"
  xmlns="http://www.w3.org/2000/svg">
  <g clip-path="url(#clip0_105_674)">
    <path fill-rule="evenodd" clip-rule="evenodd" d="M18.6832 18.872C18.1344 18.9563 17.5723 19 17 19C10.9249 19 6 14.0751 6 7.99996C6 4.91436 7.27046 2.1255 9.31682 0.12793C4.04066 0.938084 0 5.49715 0 11C0 17.0751 4.92487 22 11 22C13.9895 22 16.7005 20.8074 18.6832 18.872Z" fill="#1E293B"/>
    <path d="M36.2074 7.34375C36.1278 6.59943 35.7926 6.01989 35.2017 5.60511C34.6165 5.19034 33.8551 4.98295 32.9176 4.98295C32.2585 4.98295 31.6932 5.08239 31.2216 5.28125C30.75 5.48011 30.3892 5.75 30.1392 6.09091C29.8892 6.43182 29.7614 6.82102 29.7557 7.25852C29.7557 7.62216 29.8381 7.9375 30.0028 8.20455C30.1733 8.47159 30.4034 8.69886 30.6932 8.88636C30.983 9.06818 31.304 9.22159 31.6562 9.34659C32.0085 9.47159 32.3636 9.5767 32.7216 9.66193L34.358 10.071C35.017 10.2244 35.6506 10.4318 36.2585 10.6932C36.8722 10.9545 37.4205 11.2841 37.9034 11.6818C38.392 12.0795 38.7784 12.5597 39.0625 13.1222C39.3466 13.6847 39.4886 14.3437 39.4886 15.0994C39.4886 16.1222 39.2273 17.0227 38.7045 17.8011C38.1818 18.5739 37.4261 19.179 36.4375 19.6165C35.4545 20.0483 34.2642 20.2642 32.8665 20.2642C31.5085 20.2642 30.3295 20.054 29.3295 19.6335C28.3352 19.2131 27.5568 18.5994 26.9943 17.7926C26.4375 16.9858 26.1364 16.0028 26.0909 14.8438H29.2017C29.2472 15.4517 29.4347 15.9574 29.7642 16.3608C30.0938 16.7642 30.5227 17.0653 31.0511 17.2642C31.5852 17.4631 32.1818 17.5625 32.8409 17.5625C33.5284 17.5625 34.1307 17.4602 34.6477 17.2557C35.1705 17.0455 35.5795 16.7557 35.875 16.3864C36.1705 16.0114 36.321 15.5739 36.3267 15.0739C36.321 14.6193 36.1875 14.2443 35.9261 13.9489C35.6648 13.6477 35.2983 13.3977 34.8267 13.1989C34.3608 12.9943 33.8153 12.8125 33.1903 12.6534L31.2045 12.142C29.767 11.7727 28.6307 11.2131 27.7955 10.4631C26.9659 9.70739 26.5511 8.70455 26.5511 7.45454C26.5511 6.42614 26.8295 5.52557 27.3864 4.75284C27.9489 3.98011 28.7131 3.38068 29.679 2.95454C30.6449 2.52273 31.7386 2.30682 32.9602 2.30682C34.1989 2.30682 35.2841 2.52273 36.2159 2.95454C37.1534 3.38068 37.8892 3.97443 38.4233 4.73579C38.9574 5.49148 39.233 6.3608 39.25 7.34375H36.2074ZM47.0066 20.2557C45.6941 20.2557 44.5606 19.983 43.6061 19.4375C42.6572 18.8864 41.9271 18.108 41.4157 17.1023C40.9043 16.0909 40.6487 14.9006 40.6487 13.5312C40.6487 12.1847 40.9043 11.0028 41.4157 9.9858C41.9328 8.96307 42.6543 8.16761 43.5805 7.59943C44.5066 7.02557 45.5947 6.73864 46.8447 6.73864C47.6515 6.73864 48.4129 6.86932 49.1288 7.13068C49.8504 7.38636 50.4867 7.78409 51.0379 8.32386C51.5947 8.86364 52.0322 9.55114 52.3504 10.3864C52.6686 11.2159 52.8276 12.2045 52.8276 13.3523V14.2983H42.0975V12.2188H49.8703C49.8646 11.6278 49.7367 11.1023 49.4867 10.642C49.2367 10.1761 48.8873 9.80966 48.4384 9.54261C47.9953 9.27557 47.4782 9.14205 46.8873 9.14205C46.2566 9.14205 45.7026 9.29545 45.2254 9.60227C44.7481 9.90341 44.3759 10.3011 44.1089 10.7955C43.8475 11.2841 43.714 11.821 43.7083 12.4062V14.2216C43.7083 14.983 43.8475 15.6364 44.1259 16.1818C44.4043 16.7216 44.7936 17.1364 45.2936 17.4261C45.7936 17.7102 46.3788 17.8523 47.0492 17.8523C47.4981 17.8523 47.9043 17.7898 48.268 17.6648C48.6316 17.5341 48.947 17.3438 49.214 17.0938C49.4811 16.8438 49.6828 16.5341 49.8191 16.1648L52.6998 16.4886C52.518 17.25 52.1714 17.9148 51.66 18.483C51.1543 19.0455 50.5066 19.483 49.7168 19.7955C48.9271 20.1023 48.0237 20.2557 47.0066 20.2557ZM57.563 2.54545V20H54.4777V2.54545H57.563ZM65.571 20.2557C64.2585 20.2557 63.125 19.983 62.1704 19.4375C61.2216 18.8864 60.4914 18.108 59.9801 17.1023C59.4687 16.0909 59.213 14.9006 59.213 13.5312C59.213 12.1847 59.4687 11.0028 59.9801 9.9858C60.4971 8.96307 61.2187 8.16761 62.1449 7.59943C63.071 7.02557 64.1591 6.73864 65.4091 6.73864C66.2159 6.73864 66.9772 6.86932 67.6932 7.13068C68.4147 7.38636 69.0511 7.78409 69.6022 8.32386C70.1591 8.86364 70.5966 9.55114 70.9147 10.3864C71.2329 11.2159 71.392 12.2045 71.392 13.3523V14.2983H60.6619V12.2188H68.4346C68.4289 11.6278 68.3011 11.1023 68.0511 10.642C67.8011 10.1761 67.4517 9.80966 67.0028 9.54261C66.5596 9.27557 66.0426 9.14205 65.4517 9.14205C64.821 9.14205 64.267 9.29545 63.7897 9.60227C63.3125 9.90341 62.9403 10.3011 62.6733 10.7955C62.4119 11.2841 62.2784 11.821 62.2727 12.4062V14.2216C62.2727 14.983 62.4119 15.6364 62.6903 16.1818C62.9687 16.7216 63.3579 17.1364 63.8579 17.4261C64.3579 17.7102 64.9432 17.8523 65.6136 17.8523C66.0625 17.8523 66.4687 17.7898 66.8324 17.6648C67.196 17.5341 67.5113 17.3438 67.7784 17.0938C68.0454 16.8438 68.2471 16.5341 68.3835 16.1648L71.2642 16.4886C71.0824 17.25 70.7358 17.9148 70.2244 18.483C69.7187 19.0455 69.071 19.483 68.2812 19.7955C67.4914 20.1023 66.588 20.2557 65.571 20.2557ZM76.1273 12.3295V20H73.0421V6.90909H75.991V9.13352H76.1444C76.4455 8.40057 76.9256 7.81818 77.5847 7.38636C78.2495 6.95455 79.0705 6.73864 80.0478 6.73864C80.9512 6.73864 81.7381 6.93182 82.4086 7.31818C83.0847 7.70455 83.6074 8.2642 83.9768 8.99716C84.3518 9.73011 84.5364 10.6193 84.5307 11.6648V20H81.4455V12.142C81.4455 11.267 81.2182 10.5824 80.7637 10.0881C80.3148 9.59375 79.6927 9.34659 78.8972 9.34659C78.3574 9.34659 77.8773 9.46591 77.4569 9.70455C77.0421 9.9375 76.7154 10.2756 76.4768 10.7188C76.2438 11.1619 76.1273 11.6989 76.1273 12.3295ZM92.5026 20.2557C91.1901 20.2557 90.0565 19.983 89.102 19.4375C88.1531 18.8864 87.423 18.108 86.9116 17.1023C86.4003 16.0909 86.1446 14.9006 86.1446 13.5312C86.1446 12.1847 86.4003 11.0028 86.9116 9.9858C87.4287 8.96307 88.1503 8.16761 89.0764 7.59943C90.0026 7.02557 91.0906 6.73864 92.3406 6.73864C93.1474 6.73864 93.9088 6.86932 94.6247 7.13068C95.3463 7.38636 95.9827 7.78409 96.5338 8.32386C97.0906 8.86364 97.5281 9.55114 97.8463 10.3864C98.1645 11.2159 98.3236 12.2045 98.3236 13.3523V14.2983H87.5935V12.2188H95.3662C95.3605 11.6278 95.2327 11.1023 94.9827 10.642C94.7327 10.1761 94.3832 9.80966 93.9344 9.54261C93.4912 9.27557 92.9741 9.14205 92.3832 9.14205C91.7526 9.14205 91.1986 9.29545 90.7213 9.60227C90.244 9.90341 89.8719 10.3011 89.6048 10.7955C89.3435 11.2841 89.2099 11.821 89.2043 12.4062V14.2216C89.2043 14.983 89.3435 15.6364 89.6219 16.1818C89.9003 16.7216 90.2895 17.1364 90.7895 17.4261C91.2895 17.7102 91.8747 17.8523 92.5452 17.8523C92.994 17.8523 93.4003 17.7898 93.7639 17.6648C94.1276 17.5341 94.4429 17.3438 94.7099 17.0938C94.977 16.8438 95.1787 16.5341 95.3151 16.1648L98.1957 16.4886C98.0139 17.25 97.6673 17.9148 97.156 18.483C96.6503 19.0455 96.0026 19.483 95.2128 19.7955C94.423 20.1023 93.5196 20.2557 92.5026 20.2557Z" fill="#1E293B"/>
  </g>
  <defs>
    <clipPath id="clip0_105_674">
      <rect width="99" height="22" fill="white"/>
    </clipPath>
  </defs>
</svg>
