<svg width="88" height="22" viewBox="0 0 88 22" fill="none"
  xmlns="http://www.w3.org/2000/svg">
  <g clip-path="url(#clip0_250_31322)">
    <path d="M2.67045 11.3295V19H-0.414773V5.90909H2.53409V8.13352H2.6875C2.98864 7.40057 3.46875 6.81818 4.12784 6.38636C4.79261 5.95455 5.61364 5.73864 6.59091 5.73864C7.49432 5.73864 8.28125 5.93182 8.9517 6.31818C9.62784 6.70455 10.1506 7.2642 10.5199 7.99716C10.8949 8.73011 11.0795 9.61932 11.0739 10.6648V19H7.98864V11.142C7.98864 10.267 7.76136 9.58239 7.30682 9.08807C6.85795 8.59375 6.2358 8.34659 5.44034 8.34659C4.90057 8.34659 4.42045 8.46591 4 8.70455C3.58523 8.9375 3.25852 9.27557 3.01989 9.71875C2.78693 10.1619 2.67045 10.6989 2.67045 11.3295ZM19.0457 19.2557C17.7332 19.2557 16.5997 18.983 15.6451 18.4375C14.6963 17.8864 13.9661 17.108 13.4548 16.1023C12.9434 15.0909 12.6877 13.9006 12.6877 12.5312C12.6877 11.1847 12.9434 10.0028 13.4548 8.9858C13.9718 7.96307 14.6934 7.16761 15.6195 6.59943C16.5457 6.02557 17.6337 5.73864 18.8837 5.73864C19.6906 5.73864 20.4519 5.86932 21.1678 6.13068C21.8894 6.38636 22.5258 6.78409 23.0769 7.32386C23.6338 7.86364 24.0713 8.55114 24.3894 9.38636C24.7076 10.2159 24.8667 11.2045 24.8667 12.3523V13.2983H14.1366V11.2188H21.9093C21.9036 10.6278 21.7758 10.1023 21.5258 9.64205C21.2758 9.17614 20.9264 8.80966 20.4775 8.54261C20.0343 8.27557 19.5173 8.14205 18.9264 8.14205C18.2957 8.14205 17.7417 8.29545 17.2644 8.60227C16.7872 8.90341 16.415 9.30114 16.148 9.79545C15.8866 10.2841 15.7531 10.821 15.7474 11.4062V13.2216C15.7474 13.983 15.8866 14.6364 16.165 15.1818C16.4434 15.7216 16.8326 16.1364 17.3326 16.4261C17.8326 16.7102 18.4178 16.8523 19.0883 16.8523C19.5372 16.8523 19.9434 16.7898 20.307 16.6648C20.6707 16.5341 20.986 16.3438 21.2531 16.0938C21.5201 15.8438 21.7218 15.5341 21.8582 15.1648L24.7389 15.4886C24.557 16.25 24.2105 16.9148 23.6991 17.483C23.1934 18.0455 22.5457 18.483 21.7559 18.7955C20.9661 19.1023 20.0627 19.2557 19.0457 19.2557ZM32.227 19.2557C30.9486 19.2557 29.8407 18.9744 28.9032 18.4119C27.9657 17.8494 27.2384 17.0625 26.7213 16.0511C26.21 15.0398 25.9543 13.858 25.9543 12.5057C25.9543 11.1534 26.21 9.96875 26.7213 8.9517C27.2384 7.93466 27.9657 7.14489 28.9032 6.58239C29.8407 6.01989 30.9486 5.73864 32.227 5.73864C33.5054 5.73864 34.6134 6.01989 35.5509 6.58239C36.4884 7.14489 37.2128 7.93466 37.7242 8.9517C38.2412 9.96875 38.4997 11.1534 38.4997 12.5057C38.4997 13.858 38.2412 15.0398 37.7242 16.0511C37.2128 17.0625 36.4884 17.8494 35.5509 18.4119C34.6134 18.9744 33.5054 19.2557 32.227 19.2557ZM32.2441 16.7841C32.9372 16.7841 33.5168 16.5937 33.9827 16.2131C34.4486 15.8267 34.7952 15.3097 35.0225 14.6619C35.2554 14.0142 35.3719 13.2926 35.3719 12.4972C35.3719 11.696 35.2554 10.9716 35.0225 10.3239C34.7952 9.67045 34.4486 9.15057 33.9827 8.7642C33.5168 8.37784 32.9372 8.18466 32.2441 8.18466C31.5338 8.18466 30.9429 8.37784 30.4713 8.7642C30.0054 9.15057 29.656 9.67045 29.423 10.3239C29.1958 10.9716 29.0821 11.696 29.0821 12.4972C29.0821 13.2926 29.1958 14.0142 29.423 14.6619C29.656 15.3097 30.0054 15.8267 30.4713 16.2131C30.9429 16.5937 31.5338 16.7841 32.2441 16.7841ZM40.1584 19V5.90909H43.1498V8.09091H43.2862C43.5248 7.33523 43.9339 6.75284 44.5135 6.34375C45.0987 5.92898 45.7663 5.72159 46.5163 5.72159C46.6868 5.72159 46.8771 5.73011 47.0873 5.74716C47.3032 5.75852 47.4822 5.77841 47.6243 5.80682V8.64489C47.4936 8.59943 47.2862 8.55966 47.0021 8.52557C46.7237 8.4858 46.4538 8.46591 46.1924 8.46591C45.6299 8.46591 45.1243 8.58807 44.6754 8.83239C44.2322 9.07102 43.8828 9.40341 43.6271 9.82955C43.3714 10.2557 43.2436 10.7472 43.2436 11.304V19H40.1584ZM53.9704 19.2557C52.6579 19.2557 51.5243 18.983 50.5698 18.4375C49.6209 17.8864 48.8908 17.108 48.3795 16.1023C47.8681 15.0909 47.6124 13.9006 47.6124 12.5312C47.6124 11.1847 47.8681 10.0028 48.3795 8.9858C48.8965 7.96307 49.6181 7.16761 50.5442 6.59943C51.4704 6.02557 52.5584 5.73864 53.8084 5.73864C54.6153 5.73864 55.3766 5.86932 56.0925 6.13068C56.8141 6.38636 57.4505 6.78409 58.0016 7.32386C58.5584 7.86364 58.9959 8.55114 59.3141 9.38636C59.6323 10.2159 59.7914 11.2045 59.7914 12.3523V13.2983H49.0613V11.2188H56.834C56.8283 10.6278 56.7005 10.1023 56.4505 9.64205C56.2005 9.17614 55.8511 8.80966 55.4022 8.54261C54.959 8.27557 54.442 8.14205 53.8511 8.14205C53.2204 8.14205 52.6664 8.29545 52.1891 8.60227C51.7118 8.90341 51.3397 9.30114 51.0726 9.79545C50.8113 10.2841 50.6778 10.821 50.6721 11.4062V13.2216C50.6721 13.983 50.8113 14.6364 51.0897 15.1818C51.3681 15.7216 51.7573 16.1364 52.2573 16.4261C52.7573 16.7102 53.3425 16.8523 54.013 16.8523C54.4618 16.8523 54.8681 16.7898 55.2317 16.6648C55.5954 16.5341 55.9107 16.3438 56.1778 16.0938C56.4448 15.8438 56.6465 15.5341 56.7829 15.1648L59.6636 15.4886C59.4817 16.25 59.1351 16.9148 58.6238 17.483C58.1181 18.0455 57.4704 18.483 56.6806 18.7955C55.8908 19.1023 54.9874 19.2557 53.9704 19.2557ZM61.4415 23.9091V5.90909H64.4756V8.07386H64.6545C64.8136 7.75568 65.0381 7.41761 65.3278 7.05966C65.6176 6.69602 66.0097 6.38636 66.504 6.13068C66.9983 5.86932 67.629 5.73864 68.396 5.73864C69.4074 5.73864 70.3193 5.99716 71.1318 6.5142C71.95 7.02557 72.5977 7.78409 73.075 8.78977C73.558 9.78977 73.7994 11.017 73.7994 12.4716C73.7994 13.9091 73.5636 15.1307 73.092 16.1364C72.6205 17.142 71.9784 17.9091 71.1659 18.4375C70.3534 18.9659 69.433 19.2301 68.4045 19.2301C67.6545 19.2301 67.0324 19.1051 66.5381 18.8551C66.0438 18.6051 65.646 18.304 65.3449 17.9517C65.0494 17.5937 64.8193 17.2557 64.6545 16.9375H64.5267V23.9091H61.4415ZM64.467 12.4545C64.467 13.3011 64.5864 14.0426 64.825 14.679C65.0693 15.3153 65.4188 15.8125 65.8733 16.1705C66.3335 16.5227 66.8903 16.6989 67.5438 16.6989C68.2256 16.6989 68.7966 16.517 69.2568 16.1534C69.717 15.7841 70.0636 15.2812 70.2966 14.6449C70.5352 14.0028 70.6545 13.2727 70.6545 12.4545C70.6545 11.642 70.5381 10.9205 70.3051 10.2898C70.0722 9.65909 69.7256 9.16477 69.2653 8.80682C68.8051 8.44886 68.2313 8.26989 67.5438 8.26989C66.8847 8.26989 66.325 8.44318 65.8648 8.78977C65.4045 9.13636 65.0551 9.62216 64.8165 10.2472C64.5835 10.8722 64.467 11.608 64.467 12.4545ZM81.1917 19.2557C79.9133 19.2557 78.8053 18.9744 77.8678 18.4119C76.9303 17.8494 76.2031 17.0625 75.686 16.0511C75.1747 15.0398 74.919 13.858 74.919 12.5057C74.919 11.1534 75.1747 9.96875 75.686 8.9517C76.2031 7.93466 76.9303 7.14489 77.8678 6.58239C78.8053 6.01989 79.9133 5.73864 81.1917 5.73864C82.4701 5.73864 83.5781 6.01989 84.5156 6.58239C85.4531 7.14489 86.1775 7.93466 86.6889 8.9517C87.2059 9.96875 87.4644 11.1534 87.4644 12.5057C87.4644 13.858 87.2059 15.0398 86.6889 16.0511C86.1775 17.0625 85.4531 17.8494 84.5156 18.4119C83.5781 18.9744 82.4701 19.2557 81.1917 19.2557ZM81.2087 16.7841C81.9019 16.7841 82.4815 16.5937 82.9474 16.2131C83.4133 15.8267 83.7599 15.3097 83.9872 14.6619C84.2201 14.0142 84.3366 13.2926 84.3366 12.4972C84.3366 11.696 84.2201 10.9716 83.9872 10.3239C83.7599 9.67045 83.4133 9.15057 82.9474 8.7642C82.4815 8.37784 81.9019 8.18466 81.2087 8.18466C80.4985 8.18466 79.9076 8.37784 79.436 8.7642C78.9701 9.15057 78.6207 9.67045 78.3877 10.3239C78.1605 10.9716 78.0468 11.696 78.0468 12.4972C78.0468 13.2926 78.1605 14.0142 78.3877 14.6619C78.6207 15.3097 78.9701 15.8267 79.436 16.2131C79.9076 16.5937 80.4985 16.7841 81.2087 16.7841Z" fill="#1E293B"/>
  </g>
  <defs>
    <clipPath id="clip0_250_31322">
      <rect width="88" height="22" fill="white"/>
    </clipPath>
  </defs>
</svg>
